<svg width="891" height="176" viewBox="0 0 891 176" fill="none" xmlns="http://www.w3.org/2000/svg">
<path d="M602 169.5V6.5C602 3.18629 604.686 0.5 608 0.5H723C726.314 0.5 729 3.18629 729 6.49999V71.7206C729 75.0343 726.314 77.7206 723 77.7206H683.695C678.295 77.7206 673.917 82.0984 673.917 87.4986C673.917 92.8988 678.295 97.2765 683.695 97.2765H723C726.314 97.2765 729 99.9628 729 103.277V169.5C729 172.814 726.314 175.5 723 175.5H608C604.686 175.5 602 172.814 602 169.5Z" fill="white"/>
<path d="M757.5 169V6C757.5 2.68629 760.186 0 763.5 0H814.5C817.814 0 820.5 2.6863 820.5 6.00001V29.6536C820.5 31.5807 822.957 32.393 824.106 30.8456L845.201 2.42406C846.333 0.899088 848.12 0 850.019 0H884.5C887.814 0 890.5 2.6863 890.5 6.00001V63.4165C890.5 65.5548 889.362 67.5315 887.513 68.6052L858.838 85.2561C857.51 86.027 857.51 87.9443 858.838 88.7152L887.513 105.366C889.362 106.44 890.5 108.416 890.5 110.555V169C890.5 172.314 887.814 175 884.5 175H849.86C848.051 175 846.338 174.184 845.199 172.779L824.054 146.696C822.867 145.233 820.5 146.072 820.5 147.956V169C820.5 172.314 817.814 175 814.5 175H763.5C760.186 175 757.5 172.314 757.5 169Z" fill="white"/>
<path fill-rule="evenodd" clip-rule="evenodd" d="M570 0.5C573.314 0.5 576 3.18629 576 6.5V169.5C576 172.814 573.314 175.5 570 175.5H450C446.686 175.5 444 172.814 444 169.5V6.5C444 3.18629 446.686 0.5 450 0.5H570ZM510 44.5C505.029 44.5 501 48.5294 501 53.5V112.5C501 117.471 505.029 121.5 510 121.5C514.971 121.5 519 117.471 519 112.5V53.5C519 48.5294 514.971 44.5 510 44.5Z" fill="white"/>
<path d="M371.813 0.5H318C314.686 0.5 312 3.18629 312 6.5V169.5C312 172.814 314.686 175.5 318 175.5H415C418.314 175.5 421 172.814 421 169.5V127.155C421 123.842 418.314 121.155 415 121.155H383.813C380.5 121.155 377.813 118.469 377.813 115.155V6.5C377.813 3.18629 375.127 0.5 371.813 0.5Z" fill="white"/>
<path fill-rule="evenodd" clip-rule="evenodd" d="M239 0.5C261.5 0.5 280 19.5 280 42.5C280 62.2031 266.057 74.5677 256.335 80.0674C254.768 80.9536 254.822 83.4408 256.461 84.1846C272.211 91.3313 288 103.975 288 129.5C288 157.5 267 174.5 240.5 174.5L153.314 175.435C149.976 175.47 147.25 172.774 147.25 169.436V6.5C147.25 3.18629 149.936 0.500001 153.25 0.5H239ZM203 106.5C200.239 106.5 198 108.739 198 111.5V119.5C198 122.261 200.239 124.5 203 124.5H223C227.971 124.5 232 120.471 232 115.5C232 110.529 227.971 106.5 223 106.5H203ZM203 45.5C200.239 45.5 198 47.7386 198 50.5V58.5C198 61.2614 200.239 63.5 203 63.5H219C223.971 63.5 228 59.4706 228 54.5C228 49.5294 223.971 45.5 219 45.5H203Z" fill="white"/>
<path d="M75.75 0.5C98.25 0.5 116.75 19.5 116.75 42.5C116.75 62.2031 102.807 74.5678 93.0849 80.0676C91.5183 80.9538 91.5694 83.4509 93.1958 84.2219C108.285 91.3753 120.5 104.02 120.5 129.5C120.5 157.5 103.75 175.5 77.25 175.5H6C2.68629 175.5 0 172.814 0 169.5V131.5C0 128.186 2.68629 125.5 6 125.5H55.75C60.7206 125.5 64.75 121.471 64.75 116.5C64.75 111.529 60.7206 107.5 55.75 107.5H22C18.6863 107.5 16 104.814 16 101.5V69.5C16 66.1863 18.6863 63.5 22 63.5H51.75C56.7206 63.5 60.75 59.4706 60.75 54.5C60.75 49.5294 56.7206 45.5 51.75 45.5H6C2.68629 45.5 0 42.8137 0 39.5V6.5C0 3.18629 2.68629 0.5 6 0.5H75.75Z" fill="white"/>
</svg>
